<svg width="2400" height="1200" viewBox="0 0 2400 1200" fill="none" xmlns="http://www.w3.org/2000/svg">
  <rect width="2400" height="1200" fill="#F1F4F8"/>
  <g opacity="0.55">
    <path d="M451.6 535.7L449.1 530.8L453.5 527.9L457.4 523.1L457.4 520.2L452.7 515.1L453.2 510.2L455.1 508.8L465.4 517.7L471.4 517.7L477.9 522.5L481 530.2L487.5 533.3L493.5 534.3L495.4 538.1L500.5 542.9L499.1 545.3L506.6 553L514.8 558.2L508.8 563.9L504.1 562.5L501 567.3L497.8 567.8L495.9 562.5L486.5 559.9L482.1 553.5L477.4 552.6L473 556L469.3 550.2L461.6 546.8L455.6 546.8L455.6 543.9L451.6 535.7Z" fill="#D8DEE6"/>
    <path d="M1431.8 412.8L1426.4 413.3L1423.7 417.2L1416 415.8L1407.3 420.2L1399.1 413.3L1390.9 413.3L1386.9 406.9L1378.7 406.4L1378.7 401.1L1382.6 395.8L1395.5 392.4L1401.6 393.8L1404.7 388.5L1400.8 381.6L1407.3 373.4L1415.5 374.4L1424.2 371.5L1427.8 365.1L1434.8 362.7L1444.0 362.7L1454.3 366.1L1460.4 364.2L1464.3 367.6L1469.9 362.7L1473.8 365.6L1477.2 362.7L1479.6 365.6L1479.6 371.0L1470.3 374.9L1467.1 379.7L1459.4 384.5L1460.9 388.5L1468.5 397.7L1466.1 401.6L1471.9 406.4L1463.7 406.9L1462.3 413.3L1458.3 416.8L1453.0 412.8L1445.4 418.1L1436.6 417.2L1431.8 412.8Z" fill="#D8DEE6"/>
    <path d="M1869.2 575.6L1863.2 575.1L1858.3 578.0L1851.4 574.6L1844.4 576.0L1837.0 570.7L1830.0 570.2L1823.1 566.3L1823.1 561.4L1817.7 558.0L1822.1 552.6L1816.7 550.7L1818.1 544.3L1813.3 538.9L1816.7 535.0L1808.5 526.3L1809.9 520.4L1814.2 517.0L1811.8 510.6L1817.7 505.3L1825.4 503.4L1828.8 498.6L1835.3 493.8L1842.3 492.9L1848.7 489.5L1855.7 486.1L1857.6 481.3L1862.4 476.5L1872.2 477.9L1877.5 475.5L1884.0 478.4L1889.3 476.0L1894.6 479.4L1898.1 485.8L1906.3 487.2L1913.7 490.1L1915.6 495.5L1921.0 497.4L1924.4 501.8L1932.1 504.7L1928.2 509.0L1931.1 517.7L1927.2 523.5L1923.7 524.4L1921.0 530.8L1908.2 537.7L1897.8 539.6L1892.5 545.0L1888.1 551.4L1880.9 555.8L1882.8 561.1L1879.4 565.4L1872.9 565.4L1874.8 569.8L1869.2 575.6Z" fill="#D8DEE6"/>
  </g>
</svg>
